
<svg width="300" height="300" viewBox="0 0 300 300" fill="none" xmlns="http://www.w3.org/2000/svg">
  <rect width="300" height="300" fill="#E5E7EB"/>
  <path d="M150 125C137.574 125 127.5 135.074 127.5 147.5C127.5 159.926 137.574 170 150 170C162.426 170 172.5 159.926 172.5 147.5C172.5 135.074 162.426 125 150 125ZM150 162.5C141.715 162.5 135 155.785 135 147.5C135 139.215 141.715 132.5 150 132.5C158.285 132.5 165 139.215 165 147.5C165 155.785 158.285 162.5 150 162.5Z" fill="#9CA3AF"/>
  <path d="M159.167 87.5H140.833L135 97.5H165L159.167 87.5Z" fill="#9CA3AF"/>
  <path d="M182.5 97.5H117.5C113.358 97.5 110 100.858 110 105V195C110 199.142 113.358 202.5 117.5 202.5H182.5C186.642 202.5 190 199.142 190 195V105C190 100.858 186.642 97.5 182.5 97.5ZM182.5 195H117.5V105H182.5V195Z" fill="#9CA3AF"/>
</svg>
